PathFileType  4	(X/Y/Z) C:\Users\antoi\Documents\MyRepositories\mobilecap\ResultsAnalysis
DataRate	CameraRate	NumFrames	NumMarkers	Units	OrigDataRate	OrigDataStartFrame	OrigNumFrames
100.0	100.0	4	51	mm	100.0	875	1399
Frame#	Time	r_knee			r_shank_antsup			r_ankle			r_calc			r_5meta			r_toe			L_knee			L_shank_antsup			L_ankle			L_calc			L_5meta			L_toe			r_sh2			r_sh3			r_sh4			L_sh2			L_sh3			r_thigh1			r_thigh2			r_thigh3			r_thigh4			r_thigh5			L_thigh1			L_thigh2			L_thigh3			L_thigh4			r.ASIS			r.PSIS			L.ASIS			L.PSIS			C7			R_Shoulder			L_Shoulder			R_Sternum			L_Sternum			R_humerus			R_elbow_med			R_elbow_lat			R_forearm			R_wrist_radius			R_wrist_ulna			L_humerus			L_elbow_med			L_elbow_lat			L_forearm			L_wrist_radius			L_wrist_ulna			R_HJC			L_HJC			R_HJC_reg			L_HJC_reg			
		X1	Y1	Z1	X2	Y2	Z2	X3	Y3	Z3	X4	Y4	Z4	X5	Y5	Z5	X6	Y6	Z6	X7	Y7	Z7	X8	Y8	Z8	X9	Y9	Z9	X10	Y10	Z10	X11	Y11	Z11	X12	Y12	Z12	X13	Y13	Z13	X14	Y14	Z14	X15	Y15	Z15	X16	Y16	Z16	X17	Y17	Z17	X18	Y18	Z18	X19	Y19	Z19	X20	Y20	Z20	X21	Y21	Z21	X22	Y22	Z22	X23	Y23	Z23	X24	Y24	Z24	X25	Y25	Z25	X26	Y26	Z26	X27	Y27	Z27	X28	Y28	Z28	X29	Y29	Z29	X30	Y30	Z30	X31	Y31	Z31	X32	Y32	Z32	X33	Y33	Z33	X34	Y34	Z34	X35	Y35	Z35	X36	Y36	Z36	X37	Y37	Z37	X38	Y38	Z38	X39	Y39	Z39	X40	Y40	Z40	X41	Y41	Z41	X42	Y42	Z42	X43	Y43	Z43	X44	Y44	Z44	X45	Y45	Z45	X46	Y46	Z46	X47	Y47	Z47	X48	Y48	Z48	X49	Y49	Z49	X50	Y50	Z50	X51	Y51	Z51	

875	8.74000000	-232.75240	479.09399	-405.61620	-176.88857	393.15569	-407.00440	-300.29999	89.53798	-418.06229	-359.13742	54.74528	-463.12879	-175.46511	50.35830	-384.94007	-147.92542	87.03792	-436.51583	-242.67098	481.30660	-819.42842	-174.67447	404.39169	-810.10184	-291.52362	93.90616	-801.59779	-359.73538	48.63578	-751.08538	-185.19485	45.34158	-839.90044	-139.21357	80.22252	-792.45574	-202.96274	282.09830	-409.56818	-243.28393	404.99843	-372.50021	-274.48876	295.42046	-369.88544	-254.14474	430.39944	-847.33045	-278.51156	311.10496	-853.33350	-489.54983	570.92393	-413.31295	-381.51422	561.60947	-421.11057	-359.86730	509.20558	-381.10025	-498.38654	461.20474	-384.22884	-381.50338	456.33437	-391.69766	-467.65961	579.16648	-787.08386	-328.85089	576.05187	-784.34364	-475.76331	483.65465	-838.05784	-341.88063	475.01407	-825.31678	-476.07927	579.02868	-481.91807	-662.96803	644.51121	-562.36920	-490.94024	584.19917	-742.96398	-663.54110	643.91620	-654.88331	-439.51733	1034.05767	-603.98834	-373.85188	1005.00882	-445.80782	-349.20293	987.71453	-745.84224	-333.70565	931.64086	-572.21480	-330.93321	933.11685	-618.84421	-383.83962	878.03780	-376.38584	-502.36784	698.95677	-410.63070	-504.87868	712.70882	-336.72622	-408.30182	721.74648	-331.07378	-257.26304	740.29718	-385.96843	-259.90015	696.71246	-362.87364	-362.61649	853.84114	-817.88425	-491.79241	690.22676	-793.44671	-469.70821	702.13802	-872.73738	-393.06456	715.37731	-868.33173	-244.70045	744.65632	-802.83498	-246.09839	697.29614	-820.94578	-568.76374	506.38286	-510.02632	-574.31991	509.30158	-699.48336	-565.15157	516.54207	-517.91233	-566.21992	515.43228	-690.50974	
876	8.75000000	-228.56194	478.36420	-403.73929	-173.00377	391.30535	-404.82592	-300.16034	89.28906	-418.02118	-358.97813	54.77130	-463.15841	-175.42468	49.46467	-384.48279	-147.84912	86.57963	-436.22124	-237.71019	480.01218	-820.56940	-170.07135	402.28677	-810.87880	-290.70255	93.61245	-801.76709	-359.34161	48.70909	-750.73610	-184.90016	44.64167	-840.38025	-138.60917	78.86398	-792.35328	-200.40508	280.50843	-408.49672	-239.18993	403.72510	-370.29791	-272.10284	294.16348	-368.56043	-249.27089	428.67318	-848.64988	-274.33883	309.70979	-854.63573	-484.39565	572.23975	-412.74890	-376.11184	562.25596	-420.05731	-355.90239	508.62921	-380.37817	-495.14439	463.04055	-383.30283	-378.13764	456.63163	-390.48679	-461.56015	580.75641	-786.82566	-322.83795	576.08245	-785.11741	-471.23550	485.53520	-838.11455	-337.50858	475.29091	-826.16202	-469.59076	580.03943	-482.44012	-654.57905	648.86877	-561.65515	-484.00232	585.87161	-742.05434	-655.19351	648.60647	-654.33693	-429.00585	1035.66559	-605.18975	-362.66260	1006.53522	-446.90937	-338.76302	988.32357	-745.79776	-323.44851	932.28266	-572.82505	-320.05857	934.34521	-619.52299	-373.13879	879.90127	-377.10227	-493.19249	701.53602	-410.25341	-495.54080	715.65479	-336.31183	-398.48109	724.20398	-330.93785	-247.70160	742.07433	-386.38825	-250.25962	698.63833	-363.11727	-352.30341	854.73000	-818.05635	-481.66553	690.82344	-794.37136	-460.00092	703.57254	-873.47634	-383.18032	716.86992	-869.28799	-234.81606	746.44982	-804.13573	-235.99200	699.16073	-822.57500	-563.18895	509.02075	-509.85195	-568.75324	512.46644	-699.29930	-559.31353	519.38832	-518.39167	-560.45180	518.90441	-690.04145	
877	8.76000000	-224.03664	477.60920	-401.88976	-168.80617	389.35018	-403.06508	-299.97881	89.25919	-417.84102	-358.89125	54.82249	-463.14114	-175.19570	48.50701	-384.32836	-147.68836	86.09697	-436.05517	-232.34211	478.86139	-821.06137	-165.16493	400.33083	-811.26929	-290.02313	93.34861	-801.85204	-358.96738	48.81035	-750.57974	-184.72557	43.96245	-840.94278	-138.14679	77.73333	-792.68234	-197.96213	279.04266	-407.28278	-234.93810	402.92203	-368.44334	-269.88031	293.48066	-367.28399	-243.97889	427.45988	-849.55299	-270.38584	308.86416	-855.44508	-478.96013	574.19729	-412.11632	-370.95959	562.54584	-418.96861	-351.69945	508.61602	-379.30499	-491.60895	465.04824	-383.31997	-374.63284	457.12873	-389.54311	-455.03092	582.80536	-786.79912	-316.37560	576.10583	-785.53032	-466.21141	487.56244	-837.82043	-332.74871	475.58764	-826.59492	-463.00476	581.65095	-482.45569	-646.27129	653.37792	-561.20460	-477.38272	588.46534	-742.37597	-647.04719	653.35219	-653.60517	-419.19596	1037.99493	-606.65936	-352.27951	1008.20826	-447.99409	-329.09502	989.33199	-745.84671	-313.70309	933.45770	-573.42042	-310.71465	935.46190	-620.50217	-362.84464	881.90061	-378.02204	-484.39114	704.50544	-409.86100	-486.46024	718.66226	-336.22115	-389.12412	727.00226	-330.85949	-238.54152	744.14328	-386.95743	-241.02092	700.83943	-363.49661	-342.74899	855.90552	-818.09880	-472.21845	691.84691	-795.33426	-450.96373	705.31648	-874.28356	-373.94633	718.59841	-870.27394	-225.58872	748.53381	-805.42254	-226.56886	701.26670	-824.17353	-557.26824	512.02153	-510.00369	-563.09345	516.19153	-699.42930	-553.46117	522.46605	-518.45915	-554.90884	522.41802	-690.32214	
878	8.77000000	-219.26342	476.35784	-400.18058	-164.56484	387.34862	-401.57859	-299.73213	89.22366	-417.77421	-358.81765	54.87255	-463.08790	-174.84500	47.86004	-384.53200	-147.43918	85.55413	-436.09754	-226.59687	477.87526	-821.25781	-160.19091	398.53910	-811.43969	-289.40397	93.09295	-801.70637	-358.69894	48.94224	-750.46001	-184.57263	43.13214	-841.18706	-137.71751	76.79361	-793.18306	-195.45816	277.58294	-406.14016	-230.64942	402.03760	-367.05222	-267.43190	292.99289	-366.20657	-238.51302	426.71545	-849.98579	-266.74313	308.50601	-855.41704	-473.13772	576.49424	-411.28849	-365.62030	562.81743	-417.88810	-347.03496	508.92998	-378.14073	-487.48083	467.11581	-383.79764	-370.62584	457.73664	-388.68874	-448.07071	584.95142	-786.80145	-309.44875	576.23563	-785.55946	-460.41854	489.65284	-837.52792	-327.23138	476.06711	-826.72896	-456.31345	583.54779	-482.31554	-638.28460	658.01519	-561.00412	-470.68782	591.43296	-742.99789	-639.18262	658.13521	-652.86331	-410.13940	1040.61532	-607.60447	-342.64899	1010.25017	-449.04656	-320.32560	990.82733	-745.97050	-304.49271	935.13941	-574.06591	-302.73864	936.60896	-621.63648	-353.13480	884.14185	-379.02023	-475.79283	707.37528	-409.64482	-477.52953	721.65649	-336.33748	-380.19467	730.04818	-331.05543	-229.83785	746.55528	-387.69048	-232.26961	703.36407	-364.10288	-334.04041	857.47939	-818.11922	-463.48552	693.23892	-796.15114	-442.59857	707.33261	-874.96547	-365.49849	720.58492	-871.12608	-217.06977	750.91735	-806.67781	-217.88239	703.73870	-825.78084	-551.28159	515.23292	-510.26915	-557.32278	520.15470	-699.67032	-547.59241	525.77540	-518.41442	-549.28070	525.99927	-690.79593	
